<?xml version="1.0" standalone="no"?><!DOCTYPE svg PUBLIC "-//W3C//DTD SVG 1.1//EN" "http://www.w3.org/Graphics/SVG/1.1/DTD/svg11.dtd"><svg t="1648628866653" class="icon" viewBox="0 0 1024 1024" version="1.1" xmlns="http://www.w3.org/2000/svg" p-id="14511" xmlns:xlink="http://www.w3.org/1999/xlink" width="128" height="128"><defs><style type="text/css">@font-face { font-family: feedback-iconfont; src: url("//at.alicdn.com/t/font_1031158_u69w8yhxdu.woff2?t=1630033759944") format("woff2"), url("//at.alicdn.com/t/font_1031158_u69w8yhxdu.woff?t=1630033759944") format("woff"), url("//at.alicdn.com/t/font_1031158_u69w8yhxdu.ttf?t=1630033759944") format("truetype"); }
</style></defs><path d="M1015.808 439.296c-1.024-41.984-41.984-64.512-76.8-45.056-21.504 12.288-26.624 31.744-26.624 55.296 0 101.376 1.024 203.776 0 305.152 0 59.392-26.624 84.992-84.992 84.992H194.56c-56.32 0-82.944-26.624-82.944-82.944V451.584c0-39.936-18.432-62.464-51.2-63.488-33.792-1.024-53.248 22.528-53.248 64.512v332.8c0 102.4 55.296 158.72 157.696 158.72h696.32c97.28 0 152.576-56.32 153.6-153.6 1.024-65.536 0-132.096 0-197.632 2.048-51.2 3.072-102.4 1.024-153.6z" fill="#0983FC" p-id="14512"></path><path d="M457.728 648.192c36.864 35.84 73.728 35.84 110.592 0 49.152-48.128 97.28-97.28 146.432-146.432 27.648-27.648 29.696-58.368 7.168-80.896s-53.248-20.48-80.896 7.168c-23.552 23.552-46.08 48.128-68.608 72.704-2.048-2.048-5.12-4.096-7.168-5.12v-29.696-351.232c0-34.816-20.48-57.344-51.2-57.344-29.696 0-51.2 21.504-53.248 55.296-1.024 9.216 0 18.432 0 27.648v354.304c-2.048 1.024-5.12 2.048-7.168 3.072-23.552-24.576-46.08-49.152-70.656-72.704-26.624-25.6-57.344-27.648-78.848-5.12-22.528 22.528-20.48 52.224 6.144 78.848 48.128 50.176 97.28 100.352 147.456 149.504z" fill="#0983FC" p-id="14513"></path></svg>