<?xml version="1.0" standalone="no"?><!DOCTYPE svg PUBLIC "-//W3C//DTD SVG 1.1//EN" "http://www.w3.org/Graphics/SVG/1.1/DTD/svg11.dtd"><svg t="1648624722735" class="icon" viewBox="0 0 1024 1024" version="1.1" xmlns="http://www.w3.org/2000/svg" p-id="1562" xmlns:xlink="http://www.w3.org/1999/xlink" width="200" height="200"><defs><style type="text/css">@font-face { font-family: feedback-iconfont; src: url("//at.alicdn.com/t/font_1031158_u69w8yhxdu.woff2?t=1630033759944") format("woff2"), url("//at.alicdn.com/t/font_1031158_u69w8yhxdu.woff?t=1630033759944") format("woff"), url("//at.alicdn.com/t/font_1031158_u69w8yhxdu.ttf?t=1630033759944") format("truetype"); }
</style></defs><path d="M544 565.333333m-266.666667 0a266.666667 266.666667 0 1 0 533.333334 0 266.666667 266.666667 0 1 0-533.333334 0Z" fill="#FFC500" opacity=".2" p-id="1563"></path><path d="M512 192c176.725333 0 320 143.274667 320 320a319.146667 319.146667 0 0 1-23.488 120.554667 21.333333 21.333333 0 0 1-39.530667-16.085334A276.48 276.48 0 0 0 789.333333 512c0-153.173333-124.16-277.333333-277.333333-277.333333s-277.333333 124.16-277.333333 277.333333 124.16 277.333333 277.333333 277.333333c56.533333 0 110.506667-16.938667 156.202667-48.128a21.333333 21.333333 0 0 1 24.064 35.221334A318.570667 318.570667 0 0 1 512 832c-176.725333 0-320-143.274667-320-320 0-176.725333 143.274667-320 320-320z" fill="#3654FD" p-id="1564"></path><path d="M426.666667 426.666667m17.066666 0l136.533334 0q17.066667 0 17.066666 17.066666l0 136.533334q0 17.066667-17.066666 17.066666l-136.533334 0q-17.066667 0-17.066666-17.066666l0-136.533334q0-17.066667 17.066666-17.066666Z" fill="#3654FD" p-id="1565"></path></svg>