<?xml version="1.0" standalone="no"?><!DOCTYPE svg PUBLIC "-//W3C//DTD SVG 1.1//EN" "http://www.w3.org/Graphics/SVG/1.1/DTD/svg11.dtd"><svg t="1648631127225" class="icon" viewBox="0 0 1279 1024" version="1.1" xmlns="http://www.w3.org/2000/svg" p-id="21303" xmlns:xlink="http://www.w3.org/1999/xlink" width="159.875" height="128"><defs><style type="text/css">@font-face { font-family: feedback-iconfont; src: url("//at.alicdn.com/t/font_1031158_u69w8yhxdu.woff2?t=1630033759944") format("woff2"), url("//at.alicdn.com/t/font_1031158_u69w8yhxdu.woff?t=1630033759944") format("woff"), url("//at.alicdn.com/t/font_1031158_u69w8yhxdu.ttf?t=1630033759944") format("truetype"); }
</style></defs><path d="M486.4 1024h-409.6c-42.3424 0-76.8-34.4576-76.8-76.8v-870.4c0-42.3424 34.4576-76.8 76.8-76.8h409.6c42.3424 0 76.8 34.4576 76.8 76.8v128h458.6496c42.3424 0 76.8 34.4576 76.8 76.8v102.4h-51.2v-102.4a25.6 25.6 0 0 0-25.6-25.6h-509.8496v-179.2a25.6 25.6 0 0 0-25.6-25.6h-409.6a25.6 25.6 0 0 0-25.6 25.6v870.4c0 14.08 11.52 25.6 25.6 25.6h409.6v51.2z" fill="#3585F2" p-id="21304"></path><path d="M1049.6 1023.8464h-972.8a76.8 76.8 0 0 1-76.6464-76.6464 25.088 25.088 0 0 1 1.0752-7.3216l152.6272-508.7744a76.6976 76.6976 0 0 1 76.544-72.5504h972.8a76.8 76.8 0 0 1 76.6464 76.6976 25.344 25.344 0 0 1-1.0752 7.3216l-152.6272 508.7744a76.6976 76.6976 0 0 1-76.544 72.4992z m-998.3488-73.5232c1.536 12.7488 12.3904 22.6304 25.5488 22.6304h972.8a25.8048 25.8048 0 0 0 25.7536-25.7536 25.088 25.088 0 0 1 1.0752-7.3216l152.3712-507.8016a25.7024 25.7024 0 0 0-25.5488-22.5792h-972.8a25.7536 25.7536 0 0 0-25.7536 25.7024 25.344 25.344 0 0 1-1.0752 7.3216l-152.3712 507.8016z" fill="#3585F2" p-id="21305"></path><path d="M942.9504 571.648h-512a25.4976 25.4976 0 0 1 0-50.9952h512a25.4976 25.4976 0 0 1 0 50.9952z" fill="#3585F2" p-id="21306"></path></svg>